<?xml version="1.0" encoding="utf-8"?>
<!-- Generator: Adobe Illustrator 15.0.0, SVG Export Plug-In . SVG Version: 6.00 Build 0)  -->
<!DOCTYPE svg PUBLIC "-//W3C//DTD SVG 1.1//EN" "http://www.w3.org/Graphics/SVG/1.1/DTD/svg11.dtd">
<svg version="1.1" id="Layer_1" xmlns="http://www.w3.org/2000/svg" xmlns:xlink="http://www.w3.org/1999/xlink" x="0px" y="0px"
	 width="300px" height="160px" viewBox="0 0 300 160" enable-background="new 0 0 300 160" xml:space="preserve">
<g>
	
		<linearGradient id="SVGID_1_" gradientUnits="userSpaceOnUse" x1="275.374" y1="-179.4634" x2="275.374" y2="-109.5332" gradientTransform="matrix(1 0 0 -1 -246 -65)">
		<stop  offset="0" style="stop-color:#C20000"/>
		<stop  offset="0.0324" style="stop-color:#C40500"/>
		<stop  offset="0.4934" style="stop-color:#E44700"/>
		<stop  offset="0.8281" style="stop-color:#F77000"/>
		<stop  offset="1" style="stop-color:#FF8000"/>
	</linearGradient>
	<path fill="url(#SVGID_1_)" d="M51.666,114.464h-2.805l-7.414-21.84c-2.139-6.146-5.911-9.218-11.321-9.218
		c-9.152,0-15.998-0.133-20.539-0.4v31.458H7.082V45.335c5.343-0.534,12.724-0.802,22.142-0.802c7.48,0,12.674,1.353,15.58,4.058
		c2.905,2.705,4.358,7.832,4.358,15.379c0,6.146-0.986,10.587-2.956,13.325c-1.971,2.74-5.227,4.443-9.768,5.11v0.399
		c3.206,1.002,5.744,4.176,7.614,9.519L51.666,114.464z M9.587,81.103h19.637c6.478-0.134,10.986-1.386,13.525-3.758
		c2.538-2.369,3.807-6.828,3.807-13.375c0-6.678-1.27-11.203-3.807-13.574c-2.539-2.37-7.047-3.558-13.525-3.558
		c-8.55,0-15.096,0.067-19.637,0.2V81.103z"/>
	
		<linearGradient id="SVGID_2_" gradientUnits="userSpaceOnUse" x1="329.7852" y1="-180.6665" x2="329.7852" y2="-130.1719" gradientTransform="matrix(1 0 0 -1 -246 -65)">
		<stop  offset="0" style="stop-color:#C20000"/>
		<stop  offset="0.0324" style="stop-color:#C40500"/>
		<stop  offset="0.4934" style="stop-color:#E44700"/>
		<stop  offset="0.8281" style="stop-color:#F77000"/>
		<stop  offset="1" style="stop-color:#FF8000"/>
	</linearGradient>
	<path fill="url(#SVGID_2_)" d="M93.244,91.722h-26.75c0.201,7.949,1.804,13.543,4.809,16.781c3.006,3.24,7.815,4.858,14.427,4.858
		c5.543,0,10.986-0.435,16.331-1.302l0.401,1.803c-3.875,1.203-9.552,1.805-17.032,1.805c-7.615,0-13.092-1.953-16.431-5.861
		c-3.341-3.907-5.009-10.436-5.009-19.586s1.568-15.612,4.709-19.387c3.139-3.772,8.448-5.661,15.93-5.661
		c12.423,0,18.735,4.542,18.936,13.625c0.133,4.408-0.601,7.665-2.204,9.769C99.757,90.671,97.051,91.722,93.244,91.722z
		 M66.494,89.518h26.75c2.871,0,4.925-0.867,6.162-2.604c1.235-1.736,1.786-4.374,1.653-7.915c-0.067-3.939-1.453-6.846-4.158-8.716
		c-2.705-1.869-6.763-2.805-12.173-2.805c-6.612,0-11.288,1.652-14.026,4.959C67.963,75.742,66.56,81.438,66.494,89.518z"/>
	
		<linearGradient id="SVGID_3_" gradientUnits="userSpaceOnUse" x1="381.2725" y1="-179.4653" x2="381.2725" y2="-131.375" gradientTransform="matrix(1 0 0 -1 -246 -65)">
		<stop  offset="0" style="stop-color:#C20000"/>
		<stop  offset="0.0324" style="stop-color:#C40500"/>
		<stop  offset="0.4934" style="stop-color:#E44700"/>
		<stop  offset="0.8281" style="stop-color:#F77000"/>
		<stop  offset="1" style="stop-color:#FF8000"/>
	</linearGradient>
	<path fill="url(#SVGID_3_)" d="M157.664,66.375l-19.737,47.288c-0.335,0.535-0.769,0.803-1.302,0.803h-2.705
		c-0.536,0-0.969-0.268-1.303-0.803L112.88,66.375h2.604l15.329,36.77c0.466,1.002,1.102,2.521,1.903,4.559
		c0.802,2.038,1.436,3.558,1.904,4.56h1.302l3.908-9.219l15.228-36.668L157.664,66.375L157.664,66.375z"/>
	
		<linearGradient id="SVGID_4_" gradientUnits="userSpaceOnUse" x1="432.8779" y1="-180.6665" x2="432.8779" y2="-130.1719" gradientTransform="matrix(1 0 0 -1 -246 -65)">
		<stop  offset="0" style="stop-color:#C20000"/>
		<stop  offset="0.0324" style="stop-color:#C40500"/>
		<stop  offset="0.4934" style="stop-color:#E44700"/>
		<stop  offset="0.8281" style="stop-color:#F77000"/>
		<stop  offset="1" style="stop-color:#FF8000"/>
	</linearGradient>
	<path fill="url(#SVGID_4_)" d="M196.337,91.722h-26.75c0.2,7.949,1.803,13.543,4.81,16.781c3.006,3.24,7.813,4.858,14.428,4.858
		c5.543,0,10.986-0.435,16.33-1.302l0.4,1.803c-3.875,1.203-9.553,1.805-17.031,1.805c-7.615,0-13.093-1.953-16.432-5.861
		c-3.341-3.907-5.01-10.436-5.01-19.586s1.568-15.612,4.709-19.387c3.139-3.772,8.447-5.661,15.93-5.661
		c12.424,0,18.735,4.542,18.936,13.625c0.134,4.408-0.601,7.665-2.203,9.769C202.85,90.671,200.145,91.722,196.337,91.722z
		 M169.587,89.518h26.75c2.871,0,4.925-0.867,6.162-2.604c1.233-1.736,1.786-4.374,1.651-7.915
		c-0.066-3.939-1.451-6.846-4.156-8.716c-2.705-1.869-6.764-2.805-12.174-2.805c-6.611,0-11.289,1.652-14.025,4.959
		C171.055,75.742,169.652,81.438,169.587,89.518z"/>
	
		<linearGradient id="SVGID_5_" gradientUnits="userSpaceOnUse" x1="484.666" y1="-180.0659" x2="484.666" y2="-130.1719" gradientTransform="matrix(1 0 0 -1 -246 -65)">
		<stop  offset="0" style="stop-color:#C20000"/>
		<stop  offset="0.0324" style="stop-color:#C40500"/>
		<stop  offset="0.4934" style="stop-color:#E44700"/>
		<stop  offset="0.8281" style="stop-color:#F77000"/>
		<stop  offset="1" style="stop-color:#FF8000"/>
	</linearGradient>
	<path fill="url(#SVGID_5_)" d="M221.783,69.08l-0.301-1.804c9.953-1.402,17.6-2.104,22.943-2.104
		c8.883,0,13.325,4.477,13.325,13.425v35.867h-1.804l-0.502-9.316c-2.338,2.404-5.744,4.658-10.219,6.763
		c-4.476,2.104-8.852,3.156-13.125,3.156c-4.007,0-7.098-1.054-9.268-3.156c-2.171-2.104-3.256-5.093-3.256-8.967v-6.212
		c0-3.605,1.002-6.395,3.006-8.365c2.004-1.97,4.842-2.956,8.516-2.956h24.246v-6.813c0-7.413-3.674-11.12-11.021-11.12
		C237.714,67.478,230.199,68.012,221.783,69.08z M222.085,96.731v6.212c0,6.347,3.339,9.585,10.019,9.718
		c3.674,0.067,7.748-0.884,12.225-2.855c4.474-1.969,8.146-4.322,11.021-7.062V87.415l-24.245,0.399
		C225.091,87.949,222.085,90.921,222.085,96.731z"/>
	
		<linearGradient id="SVGID_6_" gradientUnits="userSpaceOnUse" x1="530.6533" y1="-180.0669" x2="530.6533" y2="-109.333" gradientTransform="matrix(1 0 0 -1 -246 -65)">
		<stop  offset="0" style="stop-color:#C20000"/>
		<stop  offset="0.0324" style="stop-color:#C40500"/>
		<stop  offset="0.4934" style="stop-color:#E44700"/>
		<stop  offset="0.8281" style="stop-color:#F77000"/>
		<stop  offset="1" style="stop-color:#FF8000"/>
	</linearGradient>
	<path fill="url(#SVGID_6_)" d="M278.791,44.333v60.514c0,2.604,0.701,4.593,2.104,5.961c1.402,1.369,3.372,2.055,5.911,2.055h5.812
		l0.301,1.604c-1.337,0.399-3.475,0.602-6.412,0.602c-3.073,0-5.527-0.885-7.363-2.655c-1.838-1.77-2.756-4.258-2.756-7.464V44.333
		H278.791z"/>
</g>
</svg>
